<svg width="200" height="200" viewBox="0 0 200 200" xmlns="http://www.w3.org/2000/svg">
  <style>
    text {
      font-family: sans-serif;
      font-size: 12px;
      fill: white;
      text-anchor: middle;
    }
  </style>
  <rect width="200" height="200" fill="#0f172a"/>
  <g id="extract">
    <circle cx="20" cy="30" r="3" fill="#60a5fa"/>
    <circle cx="40" cy="50" r="3" fill="#60a5fa"/>
    <circle cx="15" cy="70" r="3" fill="#60a5fa"/>
    <circle cx="35" cy="80" r="3" fill="#60a5fa"/>
    <circle cx="25" cy="55" r="3" fill="#60a5fa"/>
  </g>
  <g id="coalesce">
    <circle cx="100" cy="60" r="10" fill="#86efac"/>
    <circle cx="90" cy="50" r="7" fill="#86efac"/>
    <circle cx="110" cy="50" r="7" fill="#86efac"/>
    <circle cx="95" cy="70" r="7" fill="#86efac"/>
    <circle cx="105" cy="70" r="7" fill="#86efac"/>
    <line x1="45" y1="50" x2="85" y2="50" stroke="#86efac" stroke-width="1"/>
  </g>
  <g id="stratify">
    <rect x="150" y="20" width="30" height="20" fill="#c084fc"/>
    <rect x="150" y="40" width="30" height="20" fill="#c084fc"/>
    <rect x="150" y="60" width="30" height="20" fill="#c084fc"/>
    <rect x="150" y="80" width="30" height="20" fill="#c084fc"/>
    <line x1="115" y1="60" x2="150" y2="60" stroke="#c084fc" stroke-width="1"/>
  </g>
  <text x="100" y="190">anno</text>
</svg>