<svg width="200" height="200" viewBox="0 0 200 200" fill="none" xmlns="http://www.w3.org/2000/svg">
<rect width="200" height="200" fill="#0f172a"/>
<circle cx="30" cy="20" r="1" fill="white"/>
<circle cx="170" cy="35" r="1" fill="white"/>
<circle cx="90" cy="15" r="1" fill="white"/>
<circle cx="150" cy="70" r="1" fill="white"/>
<circle cx="50" cy="85" r="1" fill="white"/>
<circle cx="120" cy="15" r="1" fill="white"/>
<circle cx="35" cy="110" r="1" fill="white"/>
<circle cx="180" cy="95" r="1" fill="white"/>
<circle cx="70" cy="50" r="1" fill="white"/>
<circle cx="10" cy="60" r="1" fill="white"/>
<circle cx="190" cy="5" r="1" fill="white"/>
<circle cx="140" cy="110" r="1" fill="white"/>
<circle cx="110" cy="40" r="1" fill="white"/>
<circle cx="160" cy="15" r="1" fill="white"/>

<rect x="95" y="110" width="10" height="20" rx="2" fill="#4c2d91"/>
<rect x="90" y="90" width="20" height="20" rx="2" fill="#5e35b1"/>
<rect x="85" y="70" width="30" height="20" rx="2" fill="#7e57c2"/>
<rect x="80" y="50" width="40" height="20" rx="2" fill="#9575cd"/>

<text x="100" y="180" font-family="sans-serif" font-size="16" text-anchor="middle" fill="white">anno</text>
</svg>