<svg width="200" height="200" viewBox="0 0 200 200" fill="none" xmlns="http://www.w3.org/2000/svg">
<defs>
    <filter id="dropShadow" x="-50%" y="-50%" width="200%" height="200%" filterUnits="objectBoundingBox" primitiveUnits="userSpaceOnUse" color-interpolation-filters="sRGB">
      <feGaussianBlur in="SourceAlpha" stdDeviation="1" result="blur"/>
      <feOffset dx="1" dy="1" in="blur" result="offsetBlur"/>
      <feFlood flood-color="#888888" flood-opacity="0.7" result="offsetColor"/>
      <feComposite in="offsetColor" in2="offsetBlur" operator="in" result="offsetComposite"/>
      <feMerge>
        <feMergeNode in="offsetComposite"/>
        <feMergeNode in="SourceGraphic"/>
      </feMerge>
    </filter>
  </defs>
<rect width="200" height="200" fill="#0f172a"/>
<g id="stars">
    <circle cx="25" cy="30" r="0.5" fill="#a7d9ed"/>
    <circle cx="75" cy="20" r="0.7" fill="#a7d9ed"/>
    <circle cx="125" cy="40" r="0.6" fill="#a7d9ed"/>
    <circle cx="175" cy="25" r="0.5" fill="#a7d9ed"/>
    <circle cx="35" cy="80" r="0.8" fill="#a7d9ed"/>
    <circle cx="85" cy="70" r="0.7" fill="#a7d9ed"/>
    <circle cx="135" cy="90" r="0.6" fill="#a7d9ed"/>
    <circle cx="185" cy="75" r="0.5" fill="#a7d9ed"/>
    <circle cx="50" cy="130" r="0.5" fill="#a7d9ed"/>
    <circle cx="100" cy="120" r="0.7" fill="#a7d9ed"/>
    <circle cx="150" cy="140" r="0.6" fill="#a7d9ed"/>
    <circle cx="20" cy="175" r="0.5" fill="#a7d9ed"/>
    <circle cx="70" cy="165" r="0.8" fill="#a7d9ed"/>
    <circle cx="120" cy="185" r="0.7" fill="#a7d9ed"/>
    <circle cx="170" cy="160" r="0.6" fill="#a7d9ed"/>
</g>
<g id="cairn">
    <ellipse cx="100" cy="40" rx="20" ry="8" fill="#d8b4fe" opacity="0.9"/>
    <ellipse cx="100" cy="60" rx="22" ry="9" fill="#c084fc" opacity="0.9"/>
    <ellipse cx="100" cy="80" rx="24" ry="10" fill="#a362f4" opacity="0.9"/>
    <ellipse cx="100" cy="100" rx="26" ry="11" fill="#8b5cf6" opacity="0.9"/>
    <ellipse cx="100" cy="120" rx="28" ry="12" fill="#7c3aed" opacity="0.9"/>
</g>

<g id="text" style="filter: url(#dropShadow)">
    <text x="100" y="180" text-anchor="middle" font-family="sans-serif" font-size="20" font-weight="bold" fill="white">anno</text>
</g>
</svg>