<svg width="200" height="200" viewBox="0 0 200 200" fill="none" xmlns="http://www.w3.org/2000/svg">
<rect width="200" height="200" fill="#0f172a"/>
<ellipse cx="100" cy="170" rx="25" ry="10" fill="#7e22ce"/>
<ellipse cx="103" cy="169" rx="25" ry="10" fill="url(#paint0_linear_5_2)" fill-opacity="0.4"/>
<ellipse cx="100" cy="170" rx="25" ry="10" stroke="black" stroke-opacity="0.1" stroke-width="0.5"/>
<ellipse cx="100" cy="142" rx="23" ry="9" fill="#8b5cf6"/>
<ellipse cx="102" cy="142" rx="23" ry="9" fill="url(#paint1_linear_5_2)" fill-opacity="0.4"/>
<ellipse cx="100" cy="142" rx="23" ry="9" stroke="black" stroke-opacity="0.1" stroke-width="0.5"/>
<ellipse cx="100" cy="115" rx="21" ry="8" fill="#9333ea"/>
<ellipse cx="102" cy="115" rx="21" ry="8" fill="url(#paint2_linear_5_2)" fill-opacity="0.4"/>
<ellipse cx="100" cy="115" rx="21" ry="8" stroke="black" stroke-opacity="0.1" stroke-width="0.5"/>
<ellipse cx="100" cy="90" rx="19" ry="7" fill="#a855f7"/>
<ellipse cx="102" cy="90" rx="19" ry="7" fill="url(#paint3_linear_5_2)" fill-opacity="0.4"/>
<ellipse cx="100" cy="90" rx="19" ry="7" stroke="black" stroke-opacity="0.1" stroke-width="0.5"/>
<ellipse cx="100" cy="65" rx="17" ry="6" fill="#c084fc"/>
<ellipse cx="102" cy="65" rx="17" ry="6" fill="url(#paint4_linear_5_2)" fill-opacity="0.4"/>
<ellipse cx="100" cy="65" rx="17" ry="6" stroke="black" stroke-opacity="0.1" stroke-width="0.5"/>
<defs>
<linearGradient id="paint0_linear_5_2" x1="87.5" y1="160" x2="98" y2="175" gradientUnits="userSpaceOnUse">
<stop stop-color="white"/>
<stop offset="1" stop-opacity="0"/>
</linearGradient>
<linearGradient id="paint1_linear_5_2" x1="87.5" y1="132.5" x2="96" y2="145" gradientUnits="userSpaceOnUse">
<stop stop-color="white"/>
<stop offset="1" stop-opacity="0"/>
</linearGradient>
<linearGradient id="paint2_linear_5_2" x1="87.5" y1="104.5" x2="95" y2="117" gradientUnits="userSpaceOnUse">
<stop stop-color="white"/>
<stop offset="1" stop-opacity="0"/>
</linearGradient>
<linearGradient id="paint3_linear_5_2" x1="87.5" y1="80" x2="93" y2="91.5" gradientUnits="userSpaceOnUse">
<stop stop-color="white"/>
<stop offset="1" stop-opacity="0"/>
</linearGradient>
<linearGradient id="paint4_linear_5_2" x1="87.5" y1="54.5" x2="91" y2="66" gradientUnits="userSpaceOnUse">
<stop stop-color="white"/>
<stop offset="1" stop-opacity="0"/>
</linearGradient>
</defs>
<text x="100" y="190" text-anchor="middle" font-family="Verdana" font-size="14" fill="white">anno</text>
</svg>