<svg width="200" height="200" viewBox="0 0 200 200" fill="none" xmlns="http://www.w3.org/2000/svg">
<rect width="200" height="200" fill="#0f172a"/>
<defs>
    <filter id="star-filter" x="-20%" y="-20%" width="140%" height="140%" filterUnits="objectBoundingBox" primitiveUnits="userSpaceOnUse" color-interpolation-filters="sRGB">
        <feTurbulence type="fractalNoise" baseFrequency="0.8" numOctaves="5" stitchTiles="stitch" result="noise"/>
        <feColorMatrix in="noise" type="matrix" values="1 0 0 0 0  0 1 0 0 0  0 0 1 0 0  0 0 0 0.5 0"/>
        <feBlend mode="screen" in2="SourceGraphic" result="blend"/>
    </filter>
</defs>

<g filter="url(#star-filter)">
    <circle cx="30" cy="20" r="1" fill="white"/>
    <circle cx="150" cy="40" r="0.7" fill="white"/>
    <circle cx="70" cy="60" r="1.2" fill="white"/>
    <circle cx="180" cy="80" r="0.8" fill="white"/>
    <circle cx="50" cy="100" r="0.9" fill="white"/>
    <circle cx="120" cy="120" r="1.1" fill="white"/>
    <circle cx="90" cy="140" r="0.6" fill="white"/>
    <circle cx="160" cy="160" r="1" fill="white"/>
    <circle cx="20" cy="180" r="0.7" fill="white"/>
    <circle cx="140" cy="20" r="0.8" fill="white"/>
    <circle cx="60" cy="40" r="1" fill="white"/>
    <circle cx="170" cy="60" r="0.9" fill="white"/>
    <circle cx="40" cy="80" r="1.1" fill="white"/>
    <circle cx="110" cy="100" r="0.7" fill="white"/>
    <circle cx="80" cy="120" r="1.2" fill="white"/>
    <circle cx="150" cy="140" r="1" fill="white"/>
    <circle cx="10" cy="160" r="0.9" fill="white"/>
    <circle cx="130" cy="180" r="0.6" fill="white"/>
</g>

<g transform="translate(65,60)">
  <ellipse cx="35" cy="35" rx="14" ry="10" fill="#9370DB"/>
  <ellipse cx="35" cy="15" rx="18" ry="12" fill="#9370DB"/>
  <ellipse cx="35" cy="-5" rx="22" ry="14" fill="#9370DB"/>
  <ellipse cx="35" cy="-25" rx="26" ry="16" fill="#9370DB"/>
</g>
<text x="100" y="190" font-size="12" font-family="Arial" fill="white" text-anchor="middle">anno</text>
</svg>