<svg width="200" height="200" viewBox="0 0 200 200" fill="none" xmlns="http://www.w3.org/2000/svg">
<rect width="200" height="200" fill="#0f172a"/>
<defs>
<linearGradient id="purpleGradient" x1="0" y1="0" x2="0" y2="1" gradientUnits="userSpaceOnUse">
<stop stop-color="#8b5cf6"/>
<stop offset="1" stop-color="#6d28d9"/>
</linearGradient>
</defs>

<g transform="translate(65, 20)">
  <rect x="0" y="0" width="10" height="20" rx="2" fill="url(#purpleGradient)" />
</g>
<g transform="translate(60, 40)">
  <rect x="0" y="0" width="20" height="15" rx="2" fill="url(#purpleGradient)" />
</g>
<g transform="translate(65, 55)">
  <rect x="0" y="0" width="10" height="20" rx="2" fill="url(#purpleGradient)" />
</g>
<g transform="translate(55, 75)">
  <rect x="0" y="0" width="30" height="15" rx="2" fill="url(#purpleGradient)" />
</g>
<g transform="translate(65, 90)">
  <rect x="0" y="0" width="10" height="20" rx="2" fill="url(#purpleGradient)" />
</g>
<g transform="translate(60, 110)">
  <rect x="0" y="0" width="20" height="15" rx="2" fill="url(#purpleGradient)" />
</g>
<g transform="translate(65, 125)">
  <rect x="0" y="0" width="10" height="20" rx="2" fill="url(#purpleGradient)" />
</g>

<text x="100" y="180" text-anchor="middle" font-family="Arial" font-size="12" fill="white">anno</text>
<circle cx="20" cy="20" r="2" fill="#ffffff"/>
    <circle cx="170" cy="30" r="1" fill="#ffffff"/>
    <circle cx="50" cy="150" r="2" fill="#ffffff"/>
    <circle cx="120" cy="70" r="1" fill="#ffffff"/>
    <circle cx="30" cy="80" r="1" fill="#ffffff"/>
    <circle cx="150" cy="120" r="2" fill="#ffffff"/>
</svg>