<svg width="200" height="200" viewBox="0 0 200 200" xmlns="http://www.w3.org/2000/svg">
  <defs>
    <filter id="shadow" x="-20%" y="-20%" width="140%" height="140%">
      <feGaussianBlur in="SourceAlpha" stdDeviation="1"/>
      <feOffset dx="1" dy="1" result="offsetblur"/>
      <feComponentTransfer in="offsetblur" type="linear" slope="0.5"/>
      <feMerge>
        <feMergeNode/>
        <feMergeNode in="SourceGraphic"/>
      </feMerge>
    </filter>
  </defs>
  <rect width="200" height="200" fill="#0f172a"/>
  <g>
    <circle cx="20" cy="30" r="1" fill="#ADD8E6"/>
    <circle cx="50" cy="15" r="1" fill="#ADD8E6"/>
    <circle cx="80" cy="40" r="1" fill="#ADD8E6"/>
    <circle cx="110" cy="25" r="1" fill="#ADD8E6"/>
    <circle cx="140" cy="35" r="1" fill="#ADD8E6"/>
    <circle cx="35" cy="55" r="1" fill="#ADD8E6"/>
    <circle cx="65" cy="20" r="1" fill="#ADD8E6"/>
    <circle cx="95" cy="45" r="1" fill="#ADD8E6"/>
    <circle cx="125" cy="10" r="1" fill="#ADD8E6"/>
    <circle cx="155" cy="50" r="1" fill="#ADD8E6"/>
    <circle cx="25" cy="10" r="1" fill="#ADD8E6"/>
    <circle cx="55" cy="40" r="1" fill="#ADD8E6"/>
    <circle cx="85" cy="25" r="1" fill="#ADD8E6"/>
    <circle cx="115" cy="55" r="1" fill="#ADD8E6"/>
    <circle cx="145" cy="20" r="1" fill="#ADD8E6"/>
    <circle cx="175" cy="30" r="1" fill="#ADD8E6"/>
  </g>
  <g>
    <circle cx="30" cy="70" r="5" fill="#90EE90"/>
    <circle cx="50" cy="75" r="5" fill="#90EE90"/>
    <circle cx="70" cy="80" r="5" fill="#90EE90"/>
    <circle cx="50" cy="90" r="5" fill="#90EE90"/>
    <circle cx="70" cy="95" r="5" fill="#90EE90"/>
    <circle cx="90" cy="85" r="5" fill="#90EE90"/>
    <circle cx="110" cy="90" r="5" fill="#90EE90"/>
    <circle cx="90" cy="100" r="5" fill="#90EE90"/>
    <circle cx="70" cy="110" r="5" fill="#90EE90"/>

    <path d="M30 70 L50 75 L70 80 L50 90 L70 95 L90 85 L110 90 L90 100 L70 110" stroke="#90EE90" stroke-width="2" fill="transparent"/>
  </g>
  <g>
    <rect x="85" y="20" width="30" height="30" fill="#800080"/>
    <rect x="90" y="50" width="20" height="20" fill="#800080"/>
    <rect x="95" y="70" width="10" height="10" fill="#800080"/>
  </g>

  <text x="100" y="190" font-family="Arial" font-size="16" fill="white" text-anchor="middle" style="filter: url(#shadow);">anno</text>
  <g>
    <circle cx="40" cy="170" r="1" fill="#ADD8E6"/>
    <circle cx="160" cy="10" r="1" fill="#ADD8E6"/>
    <circle cx="180" cy="120" r="1" fill="#ADD8E6"/>
    <circle cx="10" cy="150" r="1" fill="#ADD8E6"/>
  </g>
</svg>