<svg width="200" height="200" viewBox="0 0 200 200" fill="none" xmlns="http://www.w3.org/2000/svg">
<defs>
    <radialGradient id="stoneGlow1" cx="0.5" cy="0.5" r="0.5" fx="0.5" fy="0.5" gradientUnits="objectBoundingBox">
      <stop stop-color="#9370DB" stop-opacity="0.5" offset="0"/>
      <stop stop-color="#9370DB" stop-opacity="0" offset="1"/>
    </radialGradient>
    <radialGradient id="stoneGlow2" cx="0.5" cy="0.5" r="0.5" fx="0.5" fy="0.5" gradientUnits="objectBoundingBox">
      <stop stop-color="#A020F0" stop-opacity="0.5" offset="0"/>
      <stop stop-color="#A020F0" stop-opacity="0" offset="1"/>
    </radialGradient>
    <radialGradient id="stoneGlow3" cx="0.5" cy="0.5" r="0.5" fx="0.5" fy="0.5" gradientUnits="objectBoundingBox">
      <stop stop-color="#BA55D3" stop-opacity="0.5" offset="0"/>
      <stop stop-color="#BA55D3" stop-opacity="0" offset="1"/>
    </radialGradient>
  </defs>
  <rect width="200" height="200" fill="#0f172a"/>
  <g>
      <circle cx="20" cy="30" r="1" fill="white"/>
      <circle cx="50" cy="10" r="0.5" fill="white"/>
      <circle cx="120" cy="50" r="1.5" fill="white"/>
      <circle cx="180" cy="20" r="0.7" fill="white"/>
      <circle cx="30" cy="100" r="0.9" fill="white"/>
      <circle cx="80" cy="150" r="1.1" fill="white"/>
      <circle cx="150" cy="110" r="0.6" fill="white"/>
      <circle cx="60" cy="60" r="0.8" fill="white"/>
      <circle cx="100" cy="20" r="1.2" fill="white"/>
      <circle cx="170" cy="80" r="0.4" fill="white"/>
      <circle cx="40" cy="170" r="1.3" fill="white"/>
      <circle cx="130" cy="180" r="0.5" fill="white"/>
  </g>
  <g transform="translate(50, 30)">
    <ellipse cx="50" cy="80" rx="15" ry="10" fill="#4B0082">
      <animate attributeName="fill" values="#4B0082;#9370DB;#4B0082" dur="4s" repeatCount="indefinite"/>
    </ellipse>
    <ellipse cx="50" cy="80" rx="15" ry="10" fill="url(#stoneGlow1)"/>

    <ellipse cx="50" cy="50" rx="20" ry="12" fill="#663399">
       <animate attributeName="fill" values="#663399;#A020F0;#663399" dur="4s" repeatCount="indefinite"/>
    </ellipse>
     <ellipse cx="50" cy="50" rx="20" ry="12" fill="url(#stoneGlow2)"/>

    <ellipse cx="50" cy="20" rx="25" ry="15" fill="#800080">
        <animate attributeName="fill" values="#800080;#BA55D3;#800080" dur="4s" repeatCount="indefinite"/>
    </ellipse>
     <ellipse cx="50" cy="20" rx="25" ry="15" fill="url(#stoneGlow3)"/>

    <ellipse cx="50" cy="-10" rx="30" ry="18" fill="#9932CC">
        <animate attributeName="fill" values="#9932CC;#D87093;#9932CC" dur="4s" repeatCount="indefinite"/>
    </ellipse>
  </g>
  <text x="100" y="190" text-anchor="middle" font-size="12" fill="white" style="text-shadow: 0 0 5px white;">
    anno
  </text>
</svg>